:SAMPLES-PER-SECOND 30
:FRAME-RANGE 1-2091
:FULLY-SPECIFIED
:DEGREES
1765
root  -54.944 38.6557 -21.5736 -1.56274 6.2673 -3.5784
RightUpLeg  14.7582 -5.28867 2.84814
RightLeg  5.6628 -10.0736 2.08397
RightFoot  -17.4388 0.260804 7.11119
RightToes  5.82063e-011 0 -3.6325e-017
Spine  6.62638 1.62565 6.83985
Spine1  -1.68155 2.64305 -3.99959
HEad  -2.12488 48.1859 -10.2991
LeftShoulder1  0.934246 1.13253 -33.3205
LeftArm  19.264 26.5625 -31.9882
LeftForeArm  2.61634 -8.90466 -16.3107
LeftHand  0.394765 -0.114424 -8.36795
RightShoulder  5.76078 6.77255 49.1262
RightArm  31.6572 -3.95125 15.318
RightForeArm  2.82038 14.7122 11.8329
RightHand  0.227021 2.27883 3.25267
LeftUpLeg  -17.2141 7.18106 0.0679157
LeftLeg  -6.15019 33.6832 -9.27964
LeftFoot  -1.00533 0.838311 -9.18933
LeftToes  -6.27584e-011 -2.25241e-010 2.80627e-011
1766
root  -54.624 38.2727 -20.1068 -1.78119 8.32834 -4.25781
RightUpLeg  16.5496 -6.80415 2.47749
RightLeg  7.93309 -9.50106 2.57862
RightFoot  -19.3018 0.507458 9.16086
RightToes  5.82063e-011 0 -3.6325e-017
Spine  5.6403 1.79618 6.22304
Spine1  -1.0898 2.71302 -3.54553
HEad  -6.55008 58.646 -12.2393
LeftShoulder1  0.848695 1.31623 -32.7188
LeftArm  19.0979 26.8237 -31.8465
LeftForeArm  2.86988 -9.15283 -16.1504
LeftHand  0.390448 -0.00991837 -8.45167
RightShoulder  5.15425 5.64602 49.3729
RightArm  27.515 -5.12705 14.6055
RightForeArm  6.75277 11.6372 13.795
RightHand  0.21857 2.29393 3.11723
LeftUpLeg  -17.0601 6.78281 -1.53396
LeftLeg  -6.20144 37.0202 -9.84806
LeftFoot  1.05865 0.00190052 -0.0764587
LeftToes  -6.27584e-011 -2.25241e-010 2.80627e-011
1767
root  -54.2891 37.9485 -18.6469 -2.31903 10.4916 -4.12843
RightUpLeg  18.0045 -15.685 -1.45567
RightLeg  13.3018 -0.101304 2.08836
RightFoot  -20.5708 0.882991 12.6285
RightToes  5.82063e-011 0 -3.6325e-017
Spine  5.96886 2.18262 4.4071
Spine1  -1.34017 3.02027 -3.18675
HEad  -11.5213 66.7367 -14.613
LeftShoulder1  0.728577 1.61405 -32.4726
LeftArm  19.4002 26.1919 -30.7192
LeftForeArm  1.72578 -9.81215 -15.8453
LeftHand  0.403333 -0.012615 -8.72472
RightShoulder  4.58874 4.54401 49.9818
RightArm  22.953 -6.77825 13.355
RightForeArm  10.9347 7.93086 15.5402
RightHand  0.241927 2.29503 3.46967
LeftUpLeg  -18.8855 5.89808 -3.49949
LeftLeg  1.61834 37.0832 -4.59519
LeftFoot  3.42898 -1.90522 14.4547
LeftToes  -6.27584e-011 -2.25241e-010 2.80627e-011
1768
root  -53.891 37.6336 -17.2743 -2.8172 13.9232 -1.92555
RightUpLeg  16.2916 -20.3727 -6.60361
RightLeg  25.6092 5.81583 2.81189
RightFoot  -20.1611 1.29712 18.4581
RightToes  5.82063e-011 0 -3.6325e-017
Spine  7.32664 2.49939 0.522415
Spine1  -2.12405 2.9031 -2.57002
HEad  -18.0458 71.0507 -19.5413
LeftShoulder1  0.710947 1.68939 -33.0971
LeftArm  18.1879 23.2383 -28.826
LeftForeArm  0.945765 -9.39367 -16.0663
LeftHand  0.372491 0.029756 -8.12975
RightShoulder  4.12958 3.5659 51.1988
RightArm  16.9581 -7.61273 12.0823
RightForeArm  15.9784 2.5058 17.0432
RightHand  0.252348 2.21627 3.67164
LeftUpLeg  -21.4864 10.763 -9.43078
LeftLeg  14.3002 27.8963 3.73077
LeftFoot  -0.381138 -1.37286 14.2537
LeftToes  -6.27584e-011 -2.25241e-010 2.80627e-011
1769
root  -53.3991 37.3464 -16.1072 -2.47833 17.8712 -0.131577
RightUpLeg  10.1635 -18.514 -8.89166
RightLeg  41.0499 5.63326 4.96032
RightFoot  -12.9023 0.273217 26.1277
RightToes  5.82063e-011 0 -3.6325e-017
Spine  7.91632 2.70943 -0.971075
Spine1  -2.01683 3.09261 -4.00895
HEad  -20.5465 71.303 -21.7177
LeftShoulder1  0.757151 1.56769 -33.0234
LeftArm  14.4217 19.2295 -28.4504
LeftForeArm  2.49895 -8.08964 -16.4248
LeftHand  0.321037 0.107996 -7.12573
RightShoulder  3.82835 3.11203 50.7378
RightArm  12.7806 -9.05042 12.5171
RightForeArm  19.2951 -2.63959 17.4689
RightHand  0.316331 2.28379 4.6013
LeftUpLeg  -22.0277 11.9259 -14.0485
LeftLeg  19.4918 22.5311 7.26795
LeftFoot  -3.29193 -1.00402 14.4693
LeftToes  -6.27584e-011 -2.25241e-010 2.80627e-011
1770
root  -52.8834 37.2012 -15.1554 -2.10974 20.2657 0.993484
RightUpLeg  0.82644 -13.4333 -9.00921
RightLeg  56.2373 3.49719 5.20692
RightFoot  2.11881 -2.69204 22.6614
RightToes  5.82063e-011 0 -3.6325e-017
Spine  8.76665 3.28824 -0.602054
Spine1  -1.59719 3.93771 -6.75082
HEad  -22.1051 70.1412 -24.5306
LeftShoulder1  0.748856 1.58258 -32.8953
LeftArm  14.5294 16.2454 -29.1624
LeftForeArm  1.0368 -10.6565 -14.9893
LeftHand  0.320527 -0.221894 -6.65197
RightShoulder  3.92101 3.44574 49.4773
RightArm  13.1944 -10.7075 13.2193
RightForeArm  19.2289 -4.38626 17.5967
RightHand  0.444269 2.33029 6.49077
LeftUpLeg  -21.067 10.1993 -15.1927
LeftLeg  22.2051 22.4541 7.65836
LeftFoot  -6.10748 -0.6322 14.5551
LeftToes  -6.27584e-011 -2.25241e-010 2.80627e-011
1771
root  -52.3995 37.1037 -14.1928 -1.45306 24.0151 2.00296
RightUpLeg  -7.2799 -9.69567 -9.39788
RightLeg  66.5972 2.868 6.62834
RightFoot  12.1629 -3.12166 15.3312
RightToes  5.82063e-011 0 -3.6325e-017
Spine  9.50326 3.10502 -1.69145
Spine1  -1.81403 3.57697 -7.45007
HEad  -21.2151 69.2748 -25.2577
LeftShoulder1  0.740376 1.62623 -33.3455
LeftArm  22.146 14.6465 -29.8073
LeftForeArm  -5.91571 -16.9216 -10.7048
LeftHand  0.325537 -0.600599 -6.28234
RightShoulder  3.82413 3.35652 48.885
RightArm  14.0545 -10.9085 12.6848
RightForeArm  20.0563 -4.62224 17.6479
RightHand  0.559698 2.64497 7.87198
LeftUpLeg  -19.8264 8.76859 -16.408
LeftLeg  24.0726 20.4898 7.20719
LeftFoot  -8.70672 -0.259312 13.4968
LeftToes  -6.27584e-011 -2.25241e-010 2.80627e-011
1772
root  -51.8114 37.1616 -13.1779 -1.51801 29.2238 2.08858
RightUpLeg  -12.5572 -7.55492 -10.1401
RightLeg  72.5822 1.26595 3.64177
RightFoot  7.18593 -2.42087 15.0686
RightToes  5.82063e-011 0 -3.6325e-017
Spine  9.95865 2.43667 -2.19919
Spine1  -1.76194 2.62224 -6.98703
HEad  -19.3604 68.2392 -24.6033
LeftShoulder1  0.809785 1.47107 -33.7488
LeftArm  27.8466 13.1944 -30.9864
LeftForeArm  -9.20612 -21.7846 -6.31578
LeftHand  0.308978 -1.13626 -5.41213
RightShoulder  3.20218 2.34966 47.9935
RightArm  12.8605 -10.5052 11.7782
RightForeArm  21.4643 -4.13798 17.438
RightHand  0.505693 2.64343 7.0962
LeftUpLeg  -17.0131 5.31891 -16.7966
LeftLeg  24.5829 19.1782 6.8398
LeftFoot  -10.6142 -0.0174827 12.7982
LeftToes  -6.27584e-011 -2.25241e-010 2.80627e-011
1773
root  -51.1281 37.4077 -12.1457 -2.17358 34.4776 0.924622
RightUpLeg  -17.1482 -5.56219 -9.79869
RightLeg  74.1424 0.0798956 -0.733352
RightFoot  7.04955 -1.36379 8.70889
RightToes  5.82063e-011 0 -3.6325e-017
Spine  9.94698 1.82974 -1.58466
Spine1  -1.90312 1.89314 -6.08113
HEad  -16.0339 66.9819 -22.2177
LeftShoulder1  0.87 1.31492 -33.6616
LeftArm  25.5179 11.9063 -32.5483
LeftForeArm  -3.19999 -25.2515 -5.57188
LeftHand  0.28418 -1.69434 -4.52317
RightShoulder  2.69786 1.58937 46.47
RightArm  8.28332 -10.9054 10.9542
RightForeArm  23.174 -3.56121 16.7512
RightHand  0.401106 2.3725 5.80749
LeftUpLeg  -13.3452 2.29377 -16.1528
LeftLeg  23.3638 17.4704 5.81829
LeftFoot  -11.8178 0.124431 12.7113
LeftToes  -6.27584e-011 -2.25241e-010 2.80627e-011
1774
root  -50.4265 37.7061 -11.1234 -2.59546 39.0936 -0.725143
RightUpLeg  -21.8372 -2.97122 -8.93246
RightLeg  72.5292 -1.46072 -6.18155
RightFoot  5.21427 -0.486836 3.59012
RightToes  5.82063e-011 0 -3.6325e-017
Spine  9.32014 1.46583 -1.15375
Spine1  -2.3435 1.45189 -4.68741
HEad  -12.9928 65.7224 -19.5098
LeftShoulder1  0.878215 1.26351 -33.1222
LeftArm  21.5255 11.3376 -34.3536
LeftForeArm  4.07481 -28.9613 -6.0598
LeftHand  0.277417 -2.05583 -4.16453
RightShoulder  2.32495 1.00439 45.2323
RightArm  5.37671 -10.5618 9.77653
RightForeArm  22.7902 -3.01508 16.3519
RightHand  0.322218 2.12223 4.80579
LeftUpLeg  -10.2195 0.811022 -15.0466
LeftLeg  21.4703 14.6363 4.41355
LeftFoot  -12.6183 0.219202 12.7772
LeftToes  -6.27584e-011 -2.25241e-010 2.80627e-011
